<svg width="25" height="25" viewBox="0 0 25 25" fill="none" xmlns="http://www.w3.org/2000/svg">
<path d="M24.611 23.1524C24.611 23.4176 24.5056 23.672 24.3181 23.8595C24.1306 24.047 23.8762 24.1524 23.611 24.1524H1.61099C1.34577 24.1524 1.09142 24.047 0.90388 23.8595C0.716343 23.672 0.610987 23.4176 0.610987 23.1524C0.610987 22.8872 0.716343 22.6328 0.90388 22.4453C1.09142 22.2578 1.34577 22.1524 1.61099 22.1524H23.611C23.8762 22.1524 24.1306 22.2578 24.3181 22.4453C24.5056 22.6328 24.611 22.8872 24.611 23.1524ZM0.901987 8.7044C0.686509 8.30472 0.586681 7.8529 0.613707 7.39965C0.640733 6.94639 0.793542 6.50964 1.05499 6.1384C1.48224 5.51152 2.05443 4.99696 2.72299 4.6384L10.224 0.734399C10.9613 0.35103 11.78 0.150879 12.611 0.150879C13.442 0.150879 14.2607 0.35103 14.998 0.734399L22.498 4.6414C23.1665 4.99996 23.7387 5.51452 24.166 6.1414C24.4274 6.51264 24.5802 6.94939 24.6073 7.40265C24.6343 7.8559 24.5345 8.30772 24.319 8.7074C24.087 9.14623 23.7391 9.513 23.3131 9.76779C22.8871 10.0226 22.3994 10.1556 21.903 10.1524H21.611V18.1524H22.611C22.8762 18.1524 23.1306 18.2578 23.3181 18.4453C23.5056 18.6328 23.611 18.8872 23.611 19.1524C23.611 19.4176 23.5056 19.672 23.3181 19.8595C23.1306 20.047 22.8762 20.1524 22.611 20.1524H2.61099C2.34577 20.1524 2.09142 20.047 1.90388 19.8595C1.71634 19.672 1.61099 19.4176 1.61099 19.1524C1.61099 18.8872 1.71634 18.6328 1.90388 18.4453C2.09142 18.2578 2.34577 18.1524 2.61099 18.1524H3.61099V10.1524H3.31899C2.82215 10.1555 2.33399 10.0221 1.90778 9.76676C1.48156 9.51142 1.13365 9.14394 0.901987 8.7044ZM5.61099 18.1524H8.61099V10.1524H5.61099V18.1524ZM10.611 10.1524V18.1524H14.611V10.1524H10.611ZM19.611 10.1524H16.611V18.1524H19.611V10.1524ZM2.67399 7.7774C2.73673 7.89308 2.8301 7.98926 2.94387 8.0554C3.05764 8.12155 3.18742 8.1551 3.31899 8.1524H21.903C22.0346 8.1551 22.1643 8.12155 22.2781 8.0554C22.3919 7.98926 22.4852 7.89308 22.548 7.7774C22.5937 7.70096 22.6158 7.61273 22.6115 7.52377C22.6073 7.43482 22.5768 7.34911 22.524 7.2774C22.2817 6.91731 21.9562 6.62094 21.575 6.4134L14.075 2.5064C13.623 2.27182 13.1212 2.14937 12.612 2.14937C12.1028 2.14937 11.601 2.27182 11.149 2.5064L3.64899 6.4134C3.26797 6.62161 2.94252 6.91825 2.69999 7.2784C2.64708 7.34981 2.61639 7.43523 2.61176 7.52398C2.60714 7.61273 2.62878 7.70088 2.67399 7.7774Z" fill="#777E90"/>
</svg>
