<svg width="9" height="12" viewBox="0 0 9 12" fill="none" xmlns="http://www.w3.org/2000/svg">
<path d="M8.65329 5.23241C8.65329 7.93277 5.65763 10.7451 4.65168 11.6137C4.55797 11.6841 4.4439 11.7222 4.32664 11.7222C4.20939 11.7222 4.09532 11.6841 4.00161 11.6137C2.99566 10.7451 0 7.93277 0 5.23241C0 4.08491 0.455842 2.98441 1.26725 2.17301C2.07865 1.3616 3.17915 0.905762 4.32664 0.905762C5.47414 0.905762 6.57464 1.3616 7.38604 2.17301C8.19745 2.98441 8.65329 4.08491 8.65329 5.23241Z" fill="#777E90"/>
<path d="M4.32659 7.12243C5.22267 7.12243 5.94909 6.39601 5.94909 5.49993C5.94909 4.60386 5.22267 3.87744 4.32659 3.87744C3.43052 3.87744 2.7041 4.60386 2.7041 5.49993C2.7041 6.39601 3.43052 7.12243 4.32659 7.12243Z" fill="#FCFCFD"/>
</svg>
